<?xml version="1.0" encoding="iso-8859-1"?>
<!-- Generator: Adobe Illustrator 19.1.0, SVG Export Plug-In . SVG Version: 6.00 Build 0)  -->
<svg version="1.1" id="Capa_1" xmlns="http://www.w3.org/2000/svg" xmlns:xlink="http://www.w3.org/1999/xlink" x="0px" y="0px"
	 viewBox="0 0 303.047 303.047" style="enable-background:new 0 0 303.047 303.047;" xml:space="preserve">
<g>
	<g id="Layer_1_15_">
		<path d="M279.007,150.547h-16.721c-0.693-12.637-11.211-22.692-24.041-22.692h-55.71c-12.829,0-23.347,10.052-24.041,22.692
			h-13.947c-0.693-12.637-11.207-22.692-24.037-22.692h-55.71c-12.829,0-23.351,10.052-24.041,22.692H24.041
			C10.787,150.547,0,161.296,0,174.549c0,13.249,10.787,24.037,24.041,24.037h3.853v16.917c0,3.236,2.654,5.891,5.891,5.891
			c3.24,0,5.895-2.655,5.895-5.891v-16.917h223.69v16.917c0,3.236,2.655,5.891,5.891,5.891c3.279,0,5.895-2.655,5.895-5.891v-16.917
			h3.853c13.253,0,24.041-10.787,24.041-24.037C303.047,161.296,292.26,150.547,279.007,150.547z M182.536,135.483h55.71
			c8.669,0,15.757,6.63,16.455,15.064h-88.573C166.817,142.11,173.906,135.483,182.536,135.483z M64.798,135.483h55.71
			c8.626,0,15.757,6.63,16.451,15.064H48.347C49.041,142.11,56.168,135.483,64.798,135.483z M279.007,190.962H24.037
			c-9.058,0-16.416-7.359-16.416-16.412c0-9.058,7.359-16.416,16.416-16.416h254.97c9.054,0,16.451,7.359,16.451,16.416
			C295.458,183.603,288.06,190.962,279.007,190.962z M277.358,145.985c-2.1,0-3.799-1.699-3.799-3.799V89.255H29.496v50.042
			c0,2.1-1.699,3.799-3.799,3.799s-3.799-1.699-3.799-3.799V85.452c0-2.1,1.699-3.799,3.799-3.799h251.66
			c2.1,0,3.799,1.699,3.799,3.799v56.734C281.16,144.286,279.457,145.985,277.358,145.985z"/>
	</g>
</g>
<g>
</g>
<g>
</g>
<g>
</g>
<g>
</g>
<g>
</g>
<g>
</g>
<g>
</g>
<g>
</g>
<g>
</g>
<g>
</g>
<g>
</g>
<g>
</g>
<g>
</g>
<g>
</g>
<g>
</g>
</svg>
