<?xml version="1.0" encoding="iso-8859-1"?>
<!-- Generator: Adobe Illustrator 18.0.0, SVG Export Plug-In . SVG Version: 6.00 Build 0)  -->
<!DOCTYPE svg PUBLIC "-//W3C//DTD SVG 1.1//EN" "http://www.w3.org/Graphics/SVG/1.1/DTD/svg11.dtd">
<svg xmlns="http://www.w3.org/2000/svg" xmlns:xlink="http://www.w3.org/1999/xlink" version="1.1" id="Capa_1" x="0px" y="0px" viewBox="0 0 59.06 59.06" style="enable-background:new 0 0 59.06 59.06;" xml:space="preserve" width="512px" height="512px">
<path d="M45.188,15.033l1.188-0.285l-0.513-1.108c-0.07-0.152-1.78-3.729-6.348-3.729c-0.56,0-1.146,0.056-1.742,0.167  c-0.339,0.063-0.667,0.155-0.986,0.266c1.824-3,5.66-5.323,8.418-6.034l1.892-0.488l-1.502-1.249  c-0.138-0.114-3.706-3.03-8.188-2.509c-3.648,0.422-6.402,1.981-8.218,4.621c-1.33-0.806-3.009-1.389-5.127-1.617  c-4.212-0.458-7.589,2.103-7.719,2.203l-1.651,1.277l2.03,0.487c3.042,0.729,7.215,3.243,8.477,6.32  c-0.334-0.108-0.682-0.206-1.061-0.276c-0.744-0.138-1.45-0.208-2.1-0.208c-4.174,0-5.011,2.8-5.045,2.92l-0.282,1.001l1.012,0.243  c2.756,0.661,4.057,1.753,4.672,2.625c-3.981,0.848-6.68,2.613-8.309,5.389c-0.454,0.774-0.795,1.618-1.076,2.5l0.306-0.255  l1.64-1.646l3.707,3.707l-1.414,1.414l-2.293-2.293l-0.293,0.293l-2.35,1.96c-0.254,1.849-0.331,3.828-0.349,5.883l0.318-0.29  l2.673-2.675l3.707,3.707l-1.414,1.414l-2.293-2.293l-1.293,1.293l-1.696,1.544c0.018,1.671,0.22,3.288,0.566,4.838l0.678-0.756  l1.745-1.747l3.707,3.707l-1.414,1.414l-2.293-2.293l-0.293,0.293l-1.497,1.671C15.659,53.821,21.765,59.06,28.9,59.06h0.456  c7.432,0,13.746-5.685,16.025-13.557l-0.954-0.594l-1.272-0.633l-2.492,2.491l-1.414-1.414l3.51-3.51l2.645,1.322l0.471,0.293  c0.271-1.418,0.426-2.886,0.426-4.399v-0.006l-3.283-2.735l-2.354,2.354l-1.414-1.414l3.646-3.646l3.395,2.828  c-0.017-1.698-0.071-3.347-0.239-4.91l-3.092-3.062l-2.296,2.296l-1.414-1.414l3.704-3.704l2.477,2.463  c-0.303-1.096-0.707-2.126-1.258-3.065c-1.479-2.52-3.841-4.207-7.241-5.131C38.382,18.314,41.394,15.943,45.188,15.033z   M19.401,5.823c1.145-0.499,2.721-0.953,4.447-0.769c2.267,0.244,3.927,0.974,5.147,1.977c0.223,0.184,0.433,0.375,0.626,0.576  c0.041,0.042,0.087,0.082,0.127,0.125c0.239,0.261,0.454,0.535,0.649,0.817c0.026,0.037,0.049,0.075,0.074,0.112  c0.188,0.283,0.36,0.573,0.509,0.871c0.002,0.005,0.005,0.009,0.007,0.014c0.322,0.645,0.557,1.317,0.727,1.983  c0.002,0.01,0.005,0.019,0.007,0.029c0.165,0.654,0.267,1.302,0.326,1.915c0.005,0.054,0.008,0.106,0.013,0.16  c0.013,0.153,0.02,0.299,0.028,0.447c-0.044,0.058-0.093,0.115-0.136,0.174c-0.111,0.118-0.198,0.244-0.258,0.354  c-0.048,0.068-0.088,0.135-0.135,0.203c-0.147,0.214-0.288,0.426-0.423,0.639c-0.047,0.075-0.092,0.147-0.138,0.221  c-0.156,0.254-0.303,0.503-0.441,0.748c-0.018,0.031-0.035,0.062-0.052,0.093c-0.32,0.576-0.592,1.115-0.809,1.583  c-0.319-1.169-0.967-2.449-2.132-3.446C27.234,10.725,23.178,7.406,19.401,5.823z M28.955,36.474l-2.293,2.293l-1.414-1.414  l3.707-3.707l3.707,3.707l-1.414,1.414L28.955,36.474z M32.662,45.353l-1.414,1.414l-2.293-2.293l-2.293,2.293l-1.414-1.414  l3.707-3.707L32.662,45.353z M28.955,28.474l-2.293,2.293l-1.414-1.414l3.707-3.707l3.707,3.707l-1.414,1.414L28.955,28.474z   M18.248,25.353l3.707-3.707l3.707,3.707l-1.414,1.414l-2.293-2.293l-2.293,2.293L18.248,25.353z M18.248,33.353l3.707-3.707  l3.707,3.707l-1.414,1.414l-2.293-2.293l-2.293,2.293L18.248,33.353z M18.248,41.353l3.707-3.707l3.707,3.707l-1.414,1.414  l-2.293-2.293l-2.293,2.293L18.248,41.353z M21.955,48.474l-2.293,2.293l-1.414-1.414l3.707-3.707l3.707,3.707l-1.414,1.414  L21.955,48.474z M31.248,55.767l-2.293-2.293l-2.293,2.293l-1.414-1.414l3.707-3.707l3.707,3.707L31.248,55.767z M39.662,49.353  l-1.414,1.414l-2.293-2.293l-2.293,2.293l-1.414-1.414l3.707-3.707L39.662,49.353z M39.662,41.353l-1.414,1.414l-2.293-2.293  l-2.293,2.293l-1.414-1.414l3.707-3.707L39.662,41.353z M39.662,33.353l-1.414,1.414l-2.293-2.293l-2.293,2.293l-1.414-1.414  l3.707-3.707L39.662,33.353z M38.248,26.767l-2.293-2.293l-2.293,2.293l-1.414-1.414l3.707-3.707l3.707,3.707L38.248,26.767z   M31.433,19.116c-0.001,0-0.002,0-0.003,0c0.114-0.249,0.247-0.529,0.396-0.824c0.02-0.039,0.039-0.077,0.059-0.117  c0.06-0.118,0.124-0.239,0.189-0.362c0.072-0.135,0.148-0.273,0.227-0.413c0.034-0.061,0.066-0.12,0.101-0.181  c0.137-0.238,0.282-0.48,0.437-0.725c0.003-0.005,0.006-0.01,0.01-0.015c0.161-0.254,0.332-0.51,0.512-0.764l0.592-0.772  c0.473-0.582,0.982-1.106,1.52-1.551l0.285-0.235l0.002-0.011c0.722-0.54,1.516-0.941,2.378-1.1  c0.475-0.088,0.938-0.133,1.376-0.133c1.917,0,3.131,0.854,3.815,1.579c-4.114,1.383-7.318,4.218-8.595,5.959  C33.713,19.283,32.61,19.175,31.433,19.116z" fill="#A38F65"/>
<g>
</g>
<g>
</g>
<g>
</g>
<g>
</g>
<g>
</g>
<g>
</g>
<g>
</g>
<g>
</g>
<g>
</g>
<g>
</g>
<g>
</g>
<g>
</g>
<g>
</g>
<g>
</g>
<g>
</g>
</svg>
